<?xml version="1.0" standalone="no"?>
<!DOCTYPE svg PUBLIC "-//W3C//DTD SVG 20010904//EN"
 "http://www.w3.org/TR/2001/REC-SVG-20010904/DTD/svg10.dtd">
<svg version="1.0" xmlns="http://www.w3.org/2000/svg"
 width="512.000000pt" height="512.000000pt" viewBox="0 0 512.000000 512.000000"
 preserveAspectRatio="xMidYMid meet">

<g transform="translate(0.000000,512.000000) scale(0.100000,-0.100000)"
fill="#000000" stroke="none">
<path d="M3571 4869 c-459 -70 -519 -82 -553 -104 -44 -29 -78 -90 -78 -138 0
-19 146 -1003 325 -2187 302 -2002 326 -2156 350 -2191 30 -47 90 -79 144 -79
45 0 1025 146 1084 161 48 13 103 68 118 119 13 43 15 31 -492 3385 -165 1091
-156 1047 -237 1093 -28 16 -55 22 -93 21 -30 -1 -285 -37 -568 -80z m599
-527 c16 -16 31 -44 35 -63 25 -146 235 -1566 235 -1594 0 -24 -8 -44 -27 -65
-33 -36 -6 -30 -505 -105 -256 -39 -373 -52 -390 -46 -13 5 -33 20 -46 34 -21
23 -33 90 -143 813 -65 434 -119 808 -119 830 0 46 27 88 63 100 40 13 761
122 815 123 46 1 57 -3 82 -27z m60 -2783 c60 -27 88 -54 116 -114 55 -116 8
-247 -110 -307 -108 -56 -252 -6 -309 107 -95 191 109 402 303 314z"/>
<path d="M3730 3994 c-220 -34 -288 -48 -298 -61 -15 -20 -12 -33 10 -47 19
-12 584 69 606 86 18 16 15 46 -7 58 -11 5 -21 10 -23 9 -2 -1 -131 -21 -288
-45z"/>
<path d="M3770 3724 c-299 -46 -322 -53 -299 -95 13 -25 21 -25 338 24 220 34
276 45 285 60 13 20 -2 51 -25 54 -8 1 -142 -19 -299 -43z"/>
<path d="M3805 3455 c-295 -46 -317 -54 -294 -96 13 -25 20 -25 338 24 218 34
276 46 285 60 14 22 -3 51 -30 54 -10 1 -145 -18 -299 -42z"/>
<path d="M3849 3185 c-152 -23 -282 -45 -288 -49 -16 -10 -13 -56 4 -62 17 -7
559 72 593 86 40 17 24 73 -21 69 -7 0 -136 -20 -288 -44z"/>
<path d="M3885 2916 c-149 -23 -276 -45 -283 -49 -21 -14 -15 -56 11 -62 12
-3 150 14 306 38 301 47 324 54 300 98 -13 25 -15 25 -334 -25z"/>
<path d="M276 4835 c-47 -17 -94 -59 -112 -102 -12 -27 -14 -385 -14 -2225 0
-2120 1 -2194 19 -2234 10 -23 36 -54 57 -70 l37 -29 574 -3 c548 -2 575 -2
610 17 47 23 68 46 88 94 13 32 15 278 15 2224 0 2101 -1 2190 -19 2228 -22
50 -69 91 -119 105 -23 6 -232 10 -567 10 -424 -1 -538 -4 -569 -15z m1040
-589 l34 -34 0 -837 0 -837 -34 -34 -34 -34 -429 0 c-459 0 -450 -1 -490 50
-18 22 -18 1688 0 1710 40 51 31 50 490 50 l429 0 34 -34z m-378 -2752 c153
-63 191 -267 71 -381 -90 -85 -236 -84 -323 3 -108 108 -81 296 53 366 62 33
139 37 199 12z"/>
<path d="M542 3948 c-16 -16 -15 -43 2 -57 9 -8 100 -11 311 -9 271 3 299 5
309 21 8 12 8 22 0 35 -10 15 -38 17 -310 20 -225 2 -303 -1 -312 -10z"/>
<path d="M537 3673 c-16 -16 -6 -53 16 -58 12 -3 152 -4 311 -3 253 3 290 5
299 19 6 9 7 24 4 33 -6 14 -38 16 -315 16 -170 0 -312 -3 -315 -7z"/>
<path d="M534 3396 c-3 -8 -4 -23 -2 -33 3 -17 22 -18 318 -18 l315 0 0 30 0
30 -313 3 c-266 2 -313 0 -318 -12z"/>
<path d="M542 3131 c-8 -4 -12 -19 -10 -32 l3 -24 315 0 c295 0 315 1 318 18
9 45 -3 47 -317 47 -163 0 -302 -4 -309 -9z"/>
<path d="M542 2858 c-16 -16 -15 -43 2 -57 9 -8 100 -11 311 -9 271 3 299 5
309 21 8 12 8 22 0 35 -10 15 -38 17 -310 20 -225 2 -303 -1 -312 -10z"/>
<path d="M1748 4840 c-44 -13 -87 -49 -108 -90 -20 -39 -20 -67 -20 -2239 0
-1530 3 -2208 11 -2228 14 -38 57 -83 96 -99 26 -11 139 -14 594 -14 l562 0
41 24 c24 14 52 42 66 68 l25 43 3 1626 2 1626 -80 534 c-89 592 -89 583 -29
671 33 50 27 64 -37 78 -48 12 -1089 11 -1126 0z m1039 -593 l28 -27 3 -840 2
-839 -29 -33 -29 -33 -431 -3 c-379 -2 -435 -1 -462 13 -61 32 -59 6 -59 888
0 572 3 813 11 836 7 18 26 42 43 52 29 18 52 19 463 17 l433 -3 27 -28z
m-379 -2753 c52 -21 90 -60 118 -119 31 -64 31 -125 0 -190 -64 -138 -232
-179 -354 -87 -88 66 -114 200 -59 295 28 47 73 88 117 106 39 15 137 13 178
-5z"/>
<path d="M2006 3944 c-9 -8 -16 -19 -16 -24 0 -5 7 -16 16 -24 13 -14 56 -16
313 -16 308 0 321 2 321 42 0 34 -33 38 -329 38 -250 0 -292 -2 -305 -16z"/>
<path d="M2001 3666 c-9 -11 -10 -20 -1 -35 10 -21 18 -21 314 -21 325 0 336
2 321 50 -6 20 -13 20 -314 20 -256 0 -311 -2 -320 -14z"/>
<path d="M1999 3394 c-9 -11 -10 -20 -2 -32 9 -15 42 -17 318 -17 276 0 309 2
318 17 8 12 7 21 -2 32 -12 14 -52 16 -316 16 -264 0 -304 -2 -316 -16z"/>
<path d="M2000 3119 c-9 -15 -8 -24 1 -35 9 -12 64 -14 320 -14 301 0 308 0
314 20 15 48 4 50 -321 50 -296 0 -304 0 -314 -21z"/>
<path d="M2006 2854 c-9 -8 -16 -19 -16 -24 0 -5 7 -16 16 -24 13 -14 55 -16
305 -16 296 0 329 4 329 38 0 40 -13 42 -321 42 -257 0 -300 -2 -313 -16z"/>
</g>
</svg>
