<?xml version="1.0" standalone="no"?>
<!DOCTYPE svg PUBLIC "-//W3C//DTD SVG 20010904//EN"
 "http://www.w3.org/TR/2001/REC-SVG-20010904/DTD/svg10.dtd">
<svg version="1.0" xmlns="http://www.w3.org/2000/svg"
 width="50.000000pt" height="50.000000pt" viewBox="0 0 50.000000 50.000000"
 preserveAspectRatio="xMidYMid meet">

<g transform="translate(0.000000,50.000000) scale(0.100000,-0.100000)"
fill="#000000" stroke="none">
<path d="M117 457 c-32 -8 -70 -23 -85 -34 -24 -18 -27 -28 -30 -83 -2 -47 1
-67 14 -81 26 -29 167 -68 179 -49 3 5 -11 12 -32 15 -103 18 -143 42 -143 87
0 28 1 28 28 14 30 -16 142 -39 150 -31 9 9 -4 15 -58 25 -82 16 -82 24 0 40
29 5 79 10 110 10 31 0 81 -5 110 -10 82 -16 82 -24 0 -40 -54 -10 -67 -16
-58 -25 8 -8 120 15 150 31 27 14 28 14 28 -14 0 -45 -40 -69 -143 -87 -21 -3
-35 -10 -32 -15 11 -18 143 16 177 47 14 12 18 31 18 79 0 56 -3 65 -26 83
-15 11 -43 26 -63 31 -58 18 -229 21 -294 7z m295 -28 c49 -16 75 -43 59 -63
-10 -11 -18 -11 -54 2 -30 11 -78 16 -167 16 -89 0 -137 -5 -167 -16 -36 -13
-44 -13 -54 -2 -9 11 -8 19 5 33 15 16 39 25 121 45 35 9 218 -2 257 -15z"/>
<path d="M217 243 c-4 -62 -2 -82 11 -96 20 -22 10 -32 -16 -16 -28 18 -50 -2
-50 -46 0 -43 22 -64 49 -47 24 15 54 15 78 0 27 -17 49 4 49 47 0 44 -22 64
-50 46 -26 -16 -36 -6 -16 16 13 14 15 34 11 96 -6 76 -6 77 -33 77 -27 0 -27
-1 -33 -77z m43 12 c0 -25 -4 -45 -10 -45 -5 0 -10 20 -10 45 0 25 5 45 10 45
6 0 10 -20 10 -45z m8 -77 c-3 -7 -11 -13 -18 -13 -7 0 -15 6 -17 13 -3 7 4
12 17 12 13 0 20 -5 18 -12z m-58 -68 c0 -5 18 -10 40 -10 22 0 40 5 40 10 0
6 6 10 14 10 9 0 14 -12 14 -35 0 -23 -5 -35 -14 -35 -8 0 -14 5 -14 10 0 6
-18 10 -40 10 -22 0 -40 -4 -40 -10 0 -5 -6 -10 -14 -10 -9 0 -14 12 -14 35 0
23 5 35 14 35 8 0 14 -4 14 -10z"/>
<path d="M70 280 c0 -5 5 -10 10 -10 6 0 10 5 10 10 0 6 -4 10 -10 10 -5 0
-10 -4 -10 -10z"/>
<path d="M410 280 c0 -5 5 -10 10 -10 6 0 10 5 10 10 0 6 -4 10 -10 10 -5 0
-10 -4 -10 -10z"/>
<path d="M140 260 c0 -5 5 -10 10 -10 6 0 10 5 10 10 0 6 -4 10 -10 10 -5 0
-10 -4 -10 -10z"/>
<path d="M340 260 c0 -5 5 -10 10 -10 6 0 10 5 10 10 0 6 -4 10 -10 10 -5 0
-10 -4 -10 -10z"/>
</g>
</svg>
