<?xml version="1.0" standalone="no"?>
<!DOCTYPE svg PUBLIC "-//W3C//DTD SVG 20010904//EN"
 "http://www.w3.org/TR/2001/REC-SVG-20010904/DTD/svg10.dtd">
<svg version="1.0" xmlns="http://www.w3.org/2000/svg"
 width="1490.000000pt" height="1539.000000pt" viewBox="0 0 1490.000000 1539.000000"
 preserveAspectRatio="xMidYMid meet">

<g transform="translate(0.000000,1539.000000) scale(0.100000,-0.100000)"
fill="#000000" stroke="none">
<path d="M739 14259 c-201 -47 -363 -202 -415 -396 -18 -69 -20 -208 -4 -278
19 -87 76 -188 145 -257 111 -113 226 -158 480 -188 50 -6 176 -22 280 -35
302 -40 959 -125 1090 -141 66 -8 125 -20 131 -27 6 -7 93 -160 194 -342 101
-181 304 -548 452 -815 148 -267 289 -514 313 -550 35 -53 50 -90 79 -200 20
-74 63 -234 96 -355 33 -121 84 -310 114 -420 30 -110 102 -378 161 -595 59
-217 131 -483 160 -590 62 -228 133 -489 215 -790 173 -633 137 -470 466
-2085 135 -660 303 -1486 375 -1835 71 -349 138 -663 150 -697 60 -180 240
-339 441 -388 55 -14 490 -20 3338 -45 2224 -20 3295 -26 3338 -19 380 60 582
456 410 808 -41 86 -142 186 -233 233 -137 71 100 64 -3260 94 -1672 14 -3041
27 -3043 28 -1 2 -56 266 -122 587 -65 321 -133 651 -149 733 -17 82 -31 151
-31 154 0 3 1430 2 3178 -2 3520 -8 3236 -13 3381 56 90 42 196 149 243 243
20 39 63 156 97 260 144 438 587 1785 646 1960 35 105 165 498 289 875 123
377 333 1015 466 1417 132 403 247 763 255 800 18 86 18 140 0 228 -45 216
-226 401 -441 451 -84 19 -146 19 -4944 -1 -3510 -15 -4890 -19 -4895 -13 -1
2 -94 167 -205 368 -576 1035 -685 1229 -718 1273 -66 92 -214 197 -328 236
-54 18 -239 46 -629 95 -66 9 -244 31 -395 51 -151 20 -363 47 -470 61 -107
14 -262 34 -345 44 -156 20 -294 24 -356 9z m12411 -3234 c0 -3 -196 -600
-435 -1328 -240 -727 -492 -1493 -561 -1702 -68 -209 -173 -526 -232 -705
l-108 -325 -560 -2 c-307 -2 -1673 1 -3034 5 l-2475 7 -58 210 c-116 424 -169
623 -203 770 -19 83 -44 190 -55 238 -11 48 -33 119 -49 156 -15 38 -48 145
-73 238 -25 92 -91 337 -147 543 -57 206 -131 481 -166 610 -35 129 -93 343
-129 475 -36 132 -92 339 -125 460 -73 265 -85 314 -79 319 2 2 1426 9 3164
16 1738 6 3201 12 3250 13 247 5 2075 7 2075 2z"/>
<path d="M11809 2521 c-377 -97 -655 -392 -734 -782 -24 -114 -16 -320 15
-439 45 -170 132 -322 258 -449 131 -132 284 -219 467 -267 85 -22 121 -26
245 -26 123 0 160 4 242 25 499 130 816 598 747 1104 -47 354 -280 654 -612
792 -124 51 -231 71 -387 70 -113 0 -152 -5 -241 -28z"/>
<path d="M5755 2519 c-319 -70 -577 -264 -708 -532 -78 -161 -107 -282 -107
-450 0 -277 96 -513 288 -706 131 -132 284 -219 467 -267 85 -22 121 -26 245
-26 123 0 160 4 242 25 499 130 816 598 747 1104 -47 354 -280 654 -612 792
-125 51 -231 71 -387 70 -74 -1 -153 -5 -175 -10z"/>
</g>
</svg>
