<?xml version="1.0" standalone="no"?>
<!DOCTYPE svg PUBLIC "-//W3C//DTD SVG 20010904//EN"
 "http://www.w3.org/TR/2001/REC-SVG-20010904/DTD/svg10.dtd">
<svg version="1.0" xmlns="http://www.w3.org/2000/svg"
 width="983.000000pt" height="320.000000pt" viewBox="0 0 983.000000 320.000000"
 preserveAspectRatio="xMidYMid meet">

<g transform="translate(0.000000,320.000000) scale(0.100000,-0.100000)"
fill="#000000" stroke="none">
<path d="M851 2864 c-151 -40 -290 -154 -360 -293 -51 -103 -63 -167 -59 -304
l3 -112 83 -173 c45 -94 82 -179 82 -186 0 -8 -14 -38 -32 -65 -22 -36 -31
-64 -32 -95 l-1 -43 -75 -22 c-233 -69 -377 -248 -316 -394 7 -18 50 -66 94
-106 134 -123 200 -235 232 -395 18 -87 44 -140 92 -186 50 -49 97 -75 175
-95 59 -16 227 -21 279 -10 82 19 190 61 245 96 l61 40 72 -35 c99 -49 189
-68 321 -68 169 0 313 35 482 118 279 137 427 350 353 508 -13 26 -38 59 -56
74 -19 15 -34 30 -34 33 0 3 24 22 54 43 77 53 172 156 201 218 56 120 18 222
-105 285 -36 18 -92 38 -125 44 -33 6 -70 13 -83 15 -20 4 -22 9 -16 39 26
141 -165 238 -439 222 -85 -5 -196 -23 -324 -54 -15 -3 -33 3 -51 18 -16 13
-37 29 -46 34 -16 9 -15 15 8 70 133 327 -50 694 -389 780 -74 19 -222 18
-294 -1z m258 -373 c180 -92 170 -368 -16 -446 -90 -38 -220 -4 -281 73 -91
115 -87 247 12 341 64 61 197 76 285 32z m1009 -586 c56 -17 92 -53 92 -92 0
-48 -84 -120 -215 -184 -149 -73 -249 -100 -375 -102 -80 -1 -102 2 -142 21
-109 54 -96 165 29 248 146 97 461 153 611 109z m-678 -18 c0 -24 -53 -114
-58 -99 -3 11 44 122 52 122 4 0 6 -10 6 -23z m1029 -267 c56 -28 74 -54 74
-105 0 -120 -197 -284 -405 -336 -251 -63 -488 53 -399 196 45 73 114 124 244
179 215 92 390 115 486 66z m-1742 -141 c24 -8 40 -37 117 -207 112 -247 109
-242 149 -242 54 0 51 -5 167 263 l72 167 52 0 c111 0 211 -43 243 -104 34
-65 14 -123 -76 -220 -74 -80 -137 -163 -155 -206 -8 -19 -21 -75 -31 -124 -9
-49 -22 -101 -30 -115 -60 -115 -266 -188 -410 -146 -93 26 -136 76 -163 187
-39 157 -102 268 -208 368 -168 159 -157 145 -151 196 3 30 15 58 34 82 34 42
136 98 203 112 50 10 144 4 187 -11z m1563 -420 c53 -29 72 -61 66 -111 -11
-94 -121 -205 -281 -284 -120 -59 -233 -86 -360 -86 -127 -1 -197 23 -251 85
-34 40 -36 45 -32 104 3 50 10 71 34 105 96 134 356 221 644 215 122 -3 140
-6 180 -28z"/>
<path d="M3770 2325 c-272 -55 -468 -257 -525 -544 -24 -117 -16 -344 15 -451
68 -233 240 -404 470 -466 90 -24 301 -25 390 -1 228 60 389 225 435 442 9 42
15 126 15 213 l0 142 -315 0 -316 0 3 -127 3 -128 144 -3 144 -3 -7 -47 c-17
-128 -146 -210 -317 -200 -186 11 -291 127 -319 352 -28 227 46 424 187 492
66 33 179 44 250 25 59 -16 123 -68 151 -124 l25 -47 173 0 174 0 0 25 c0 44
-46 152 -93 217 -135 190 -420 287 -687 233z"/>
<path d="M4720 1591 l0 -731 175 0 175 0 2 228 3 227 200 6 c214 6 262 16 359
73 52 30 138 120 164 172 52 102 70 231 49 350 -33 183 -141 310 -320 375 -60
22 -76 23 -434 27 l-373 3 0 -730z m618 434 c99 -30 151 -101 152 -208 0 -95
-36 -158 -115 -200 -35 -18 -58 -21 -170 -22 l-130 0 -3 223 -2 222 108 0 c68
0 127 -6 160 -15z"/>
<path d="M5970 1590 l0 -732 348 5 c293 3 357 7 412 22 323 89 500 338 500
705 0 360 -170 608 -480 701 -70 21 -98 23 -427 27 l-353 4 0 -732z m718 396
c139 -64 202 -211 189 -441 -7 -119 -26 -186 -70 -251 -64 -96 -168 -134 -364
-134 l-123 0 0 431 0 431 153 -4 c142 -3 156 -6 215 -32z"/>
<path d="M7746 1954 c-182 -39 -324 -170 -382 -351 -22 -68 -29 -243 -14 -332
26 -157 136 -307 273 -374 112 -54 265 -70 404 -41 191 39 323 160 389 354 15
43 19 84 19 195 0 111 -4 152 -19 195 -66 194 -198 315 -389 354 -93 19 -189
19 -281 0z m243 -274 c21 -14 45 -48 65 -89 29 -61 31 -74 31 -176 0 -130 -19
-197 -72 -256 -84 -93 -222 -69 -283 50 -41 82 -51 244 -20 347 17 56 59 114
100 136 48 26 134 21 179 -12z"/>
<path d="M8866 1960 c-159 -40 -282 -182 -322 -370 -22 -103 -15 -331 13 -411
44 -128 116 -213 221 -262 58 -27 80 -32 167 -35 85 -3 109 0 159 18 62 24
125 74 153 121 10 16 21 29 26 29 5 0 8 -58 5 -133 -3 -114 -6 -137 -25 -167
-37 -60 -74 -75 -183 -75 -108 0 -146 15 -182 73 -19 30 -23 33 -62 28 -22 -3
-94 -8 -160 -12 l-118 -6 6 -31 c27 -134 161 -246 339 -283 114 -25 319 -15
422 20 100 34 178 86 227 151 75 100 72 70 76 743 l3 602 -173 -2 -173 -3 -5
-95 -5 -95 -27 46 c-33 57 -88 106 -146 131 -52 23 -177 32 -236 18z m274
-270 c46 -12 93 -61 122 -125 18 -42 22 -67 22 -155 1 -92 -3 -112 -26 -161
-15 -34 -40 -67 -64 -85 -33 -26 -45 -29 -109 -29 -63 0 -76 3 -108 28 -21 16
-46 45 -56 66 -28 55 -44 156 -36 231 18 175 121 267 255 230z"/>
</g>
</svg>
