<?xml version="1.0" standalone="no"?>
<!DOCTYPE svg PUBLIC "-//W3C//DTD SVG 20010904//EN"
 "http://www.w3.org/TR/2001/REC-SVG-20010904/DTD/svg10.dtd">
<svg version="1.0" xmlns="http://www.w3.org/2000/svg"
 width="370.000000pt" height="320.000000pt" viewBox="0 0 370.000000 320.000000"
 preserveAspectRatio="xMidYMid meet">

<g transform="translate(0.000000,320.000000) scale(0.100000,-0.100000)"
fill="#000000" stroke="none">
<path d="M1271 2884 c-151 -40 -290 -154 -360 -293 -51 -103 -63 -167 -59
-304 l3 -112 83 -173 c45 -94 82 -179 82 -186 0 -8 -14 -38 -32 -65 -22 -36
-31 -64 -32 -95 l-1 -43 -75 -22 c-233 -69 -377 -248 -316 -394 7 -18 50 -66
94 -106 134 -123 200 -235 232 -395 18 -87 44 -140 92 -186 50 -49 97 -75 175
-95 59 -16 227 -21 279 -10 82 19 190 61 245 96 l61 40 72 -35 c99 -49 189
-68 321 -68 169 0 313 35 482 118 279 137 427 350 353 508 -13 26 -38 59 -56
74 -19 15 -34 30 -34 33 0 3 24 22 54 43 77 53 172 156 201 218 56 120 18 222
-105 285 -36 18 -92 38 -125 44 -33 6 -70 13 -83 15 -20 4 -22 9 -16 39 26
141 -165 238 -439 222 -85 -5 -196 -23 -324 -54 -15 -3 -33 3 -51 18 -16 13
-37 29 -46 34 -16 9 -15 15 8 70 133 327 -50 694 -389 780 -74 19 -222 18
-294 -1z m258 -373 c180 -92 170 -368 -16 -446 -90 -38 -220 -4 -281 73 -91
115 -87 247 12 341 64 61 197 76 285 32z m1009 -586 c56 -17 92 -53 92 -92 0
-48 -84 -120 -215 -184 -149 -73 -249 -100 -375 -102 -80 -1 -102 2 -142 21
-109 54 -96 165 29 248 146 97 461 153 611 109z m-678 -18 c0 -24 -53 -114
-58 -99 -3 11 44 122 52 122 4 0 6 -10 6 -23z m1029 -267 c56 -28 74 -54 74
-105 0 -120 -197 -284 -405 -336 -251 -63 -488 53 -399 196 45 73 114 124 244
179 215 92 390 115 486 66z m-1742 -141 c24 -8 40 -37 117 -207 112 -247 109
-242 149 -242 54 0 51 -5 167 263 l72 167 52 0 c111 0 211 -43 243 -104 34
-65 14 -123 -76 -220 -74 -80 -137 -163 -155 -206 -8 -19 -21 -75 -31 -124 -9
-49 -22 -101 -30 -115 -60 -115 -266 -188 -410 -146 -93 26 -136 76 -163 187
-39 157 -102 268 -208 368 -168 159 -157 145 -151 196 3 30 15 58 34 82 34 42
136 98 203 112 50 10 144 4 187 -11z m1563 -420 c53 -29 72 -61 66 -111 -11
-94 -121 -205 -281 -284 -120 -59 -233 -86 -360 -86 -127 -1 -197 23 -251 85
-34 40 -36 45 -32 104 3 50 10 71 34 105 96 134 356 221 644 215 122 -3 140
-6 180 -28z"/>
</g>
</svg>
