<?xml version="1.0" standalone="no"?>
<!DOCTYPE svg PUBLIC "-//W3C//DTD SVG 20010904//EN"
 "http://www.w3.org/TR/2001/REC-SVG-20010904/DTD/svg10.dtd">
<svg version="1.0" xmlns="http://www.w3.org/2000/svg"
 width="716.000000pt" height="1139.000000pt" viewBox="0 0 716.000000 1139.000000"
 preserveAspectRatio="xMidYMid meet">

<g transform="translate(0.000000,1139.000000) scale(0.100000,-0.100000)"
fill="#000000" stroke="none">
<path d="M3375 10893 c-108 -7 -342 -46 -472 -78 -589 -145 -1118 -460 -1516
-903 -503 -560 -777 -1270 -777 -2012 0 -410 72 -767 248 -1230 38 -102 237
-639 442 -1195 205 -555 394 -1068 420 -1140 26 -71 335 -908 685 -1860 350
-952 653 -1764 673 -1805 25 -52 57 -95 102 -140 111 -111 238 -163 395 -163
164 0 300 58 414 178 84 88 113 146 222 435 135 359 676 1788 1676 4425 129
341 273 721 320 845 47 124 114 297 150 385 127 309 155 394 198 601 170 802
36 1577 -389 2262 -202 326 -539 673 -861 889 -430 287 -905 455 -1420 503
-101 9 -390 11 -510 3z m364 -1973 c439 -57 780 -361 887 -790 28 -111 26
-375 -4 -482 -51 -186 -143 -346 -274 -476 -185 -186 -416 -287 -683 -299
-412 -18 -787 207 -967 583 -69 145 -89 230 -95 405 -6 168 8 258 61 401 49
130 118 237 221 343 105 107 179 159 319 225 177 84 353 113 535 90z"/>
</g>
</svg>
